<?xml version="1.0" encoding="utf-8" standalone="no"?>
<!DOCTYPE svg PUBLIC "-//W3C//DTD SVG 1.1//EN"
  "http://www.w3.org/Graphics/SVG/1.1/DTD/svg11.dtd">
<svg xmlns:xlink="http://www.w3.org/1999/xlink" width="181.417323pt" height="153.070866pt" viewBox="0 0 181.417323 153.070866" xmlns="http://www.w3.org/2000/svg" version="1.1">
 <metadata>
  <rdf:RDF xmlns:dc="http://purl.org/dc/elements/1.1/" xmlns:cc="http://creativecommons.org/ns#" xmlns:rdf="http://www.w3.org/1999/02/22-rdf-syntax-ns#">
   <cc:Work>
    <dc:type rdf:resource="http://purl.org/dc/dcmitype/StillImage"/>
    <dc:format>image/svg+xml</dc:format>
    <dc:creator>
     <cc:Agent>
      <dc:title>Matplotlib v3.11.1, https://matplotlib.org/</dc:title>
     </cc:Agent>
    </dc:creator>
   </cc:Work>
  </rdf:RDF>
 </metadata>
 <defs>
  <style type="text/css">*{stroke-linejoin: round; stroke-linecap: butt}</style>
 </defs>
 <g id="figure_1">
  <g id="patch_1">
   <path d="M 0 153.070866 
L 181.417323 153.070866 
L 181.417323 0 
L 0 0 
L 0 153.070866 
z
" style="fill: none"/>
  </g>
  <g id="axes_1">
   <g id="patch_2">
    <path d="M 9.354331 152.787402 
L 172.062992 152.787402 
Q 178.299213 152.787402 178.299213 146.551181 
L 178.299213 10.488189 
Q 178.299213 4.251969 172.062992 4.251969 
L 9.354331 4.251969 
Q 3.11811 4.251969 3.11811 10.488189 
L 3.11811 146.551181 
Q 3.11811 152.787402 9.354331 152.787402 
z
" clip-path="url(#p677f99e3bf)" style="fill: #e8ddcb"/>
   </g>
   <g id="patch_3">
    <path d="M 8.787402 151.086614 
L 171.496063 151.086614 
Q 177.732283 151.086614 177.732283 144.850394 
L 177.732283 8.787402 
Q 177.732283 2.551181 171.496063 2.551181 
L 8.787402 2.551181 
Q 2.551181 2.551181 2.551181 8.787402 
L 2.551181 144.850394 
Q 2.551181 151.086614 8.787402 151.086614 
z
" clip-path="url(#p677f99e3bf)" style="fill: #fffefb; stroke: #e4d9c7; stroke-linejoin: miter"/>
   </g>
   <g id="text_1">
    <!-- Skript 3.6 -->
    <g style="fill: #6c6357" transform="translate(74.798536 18.136551) scale(0.076 -0.076)">
     <defs>
      <path id="FiraSans-Regular-f3" d="M 1728 4486 
C 915 4486 339 4013 339 3334 
C 339 2650 787 2323 1645 2061 
C 2394 1830 2598 1638 2598 1210 
C 2598 678 2170 422 1651 422 
C 1171 422 826 595 493 864 
L 160 493 
C 525 134 1024 -77 1658 -77 
C 2650 -77 3232 461 3232 1229 
C 3232 2074 2630 2349 1926 2566 
C 1133 2810 960 2989 960 3360 
C 960 3782 1312 3987 1754 3987 
C 2118 3987 2426 3872 2758 3603 
L 3091 3974 
C 2720 4307 2336 4486 1728 4486 
z
" transform="scale(0.015625)"/>
      <path id="FiraSans-Regular-215" d="M 1178 4800 
L 589 4730 
L 589 0 
L 1178 0 
L 1178 4800 
z
M 3117 3373 
L 2458 3373 
L 1216 1843 
L 2554 0 
L 3258 0 
L 1875 1882 
L 3117 3373 
z
" transform="scale(0.015625)"/>
      <path id="FiraSans-Regular-27c" d="M 2054 3450 
C 1645 3450 1331 3194 1152 2688 
L 1094 3373 
L 589 3373 
L 589 0 
L 1178 0 
L 1178 1926 
C 1318 2573 1562 2874 1984 2874 
C 2106 2874 2176 2861 2278 2835 
L 2387 3411 
C 2285 3437 2163 3450 2054 3450 
z
" transform="scale(0.015625)"/>
      <path id="FiraSans-Regular-1f6" d="M 877 4992 
C 634 4992 467 4819 467 4589 
C 467 4365 634 4192 877 4192 
C 1126 4192 1293 4365 1293 4589 
C 1293 4819 1126 4992 877 4992 
z
M 1178 3373 
L 589 3373 
L 589 0 
L 1178 0 
L 1178 3373 
z
" transform="scale(0.015625)"/>
      <path id="FiraSans-Regular-271" d="M 2138 3450 
C 1754 3450 1389 3264 1139 2918 
L 1094 3373 
L 589 3373 
L 589 -1363 
L 1178 -1293 
L 1178 307 
C 1395 45 1696 -77 2061 -77 
C 2931 -77 3386 666 3386 1690 
C 3386 2752 3034 3450 2138 3450 
z
M 1920 403 
C 1613 403 1350 550 1178 813 
L 1178 2458 
C 1357 2726 1632 2982 1990 2982 
C 2496 2982 2752 2566 2752 1690 
C 2752 806 2458 403 1920 403 
z
" transform="scale(0.015625)"/>
      <path id="FiraSans-Regular-29a" d="M 2086 544 
C 1920 454 1786 410 1638 410 
C 1344 410 1235 570 1235 909 
L 1235 2918 
L 1971 2918 
L 2035 3373 
L 1235 3373 
L 1235 4205 
L 646 4134 
L 646 3373 
L 58 3373 
L 58 2918 
L 646 2918 
L 646 883 
C 646 256 986 -77 1555 -77 
C 1843 -77 2086 0 2310 154 
L 2086 544 
z
" transform="scale(0.015625)"/>
      <path id="FiraSans-Regular-925" transform="scale(0.015625)"/>
      <path id="FiraSans-Regular-881" d="M 1440 4346 
C 979 4346 582 4179 218 3840 
L 525 3488 
C 813 3757 1069 3872 1408 3872 
C 1837 3872 2118 3622 2118 3219 
C 2118 2720 1766 2464 1344 2464 
L 1126 2464 
L 1056 2010 
L 1376 2010 
C 1894 2010 2227 1830 2227 1242 
C 2227 736 1901 403 1363 403 
C 1018 403 730 531 448 826 
L 96 499 
C 422 109 870 -77 1382 -77 
C 2272 -77 2842 486 2842 1235 
C 2842 1882 2413 2221 1875 2272 
C 2355 2387 2707 2714 2707 3258 
C 2707 3834 2259 4346 1440 4346 
z
" transform="scale(0.015625)"/>
      <path id="FiraSans-Regular-8d6" d="M 762 813 
C 512 813 320 614 320 371 
C 320 122 512 -77 762 -77 
C 1018 -77 1210 122 1210 371 
C 1210 614 1018 813 762 813 
z
" transform="scale(0.015625)"/>
      <path id="FiraSans-Regular-88d" d="M 1971 2816 
C 1568 2816 1222 2650 941 2253 
C 973 3232 1344 3878 1965 3878 
C 2202 3878 2426 3814 2624 3693 
L 2854 4083 
C 2605 4250 2317 4346 1971 4346 
C 960 4346 352 3411 352 2010 
C 352 781 749 -77 1792 -77 
C 2547 -77 3155 518 3155 1453 
C 3155 2368 2598 2816 1971 2816 
z
M 1792 390 
C 1222 390 973 826 947 1760 
C 1165 2112 1485 2349 1869 2349 
C 2272 2349 2560 2112 2560 1434 
C 2560 806 2298 390 1792 390 
z
" transform="scale(0.015625)"/>
     </defs>
     <use xlink:href="#FiraSans-Regular-f3"/>
     <use xlink:href="#FiraSans-Regular-215" transform="translate(54.5 0)"/>
     <use xlink:href="#FiraSans-Regular-27c" transform="translate(105.40625 0)"/>
     <use xlink:href="#FiraSans-Regular-1f6" transform="translate(143.703125 0)"/>
     <use xlink:href="#FiraSans-Regular-271" transform="translate(171.296875 0)"/>
     <use xlink:href="#FiraSans-Regular-29a" transform="translate(229.890625 0)"/>
     <use xlink:href="#FiraSans-Regular-925" transform="translate(265.984375 0)"/>
     <use xlink:href="#FiraSans-Regular-881" transform="translate(292.484375 0)"/>
     <use xlink:href="#FiraSans-Regular-8d6" transform="translate(342.390625 0)"/>
     <use xlink:href="#FiraSans-Regular-88d" transform="translate(365.390625 0)"/>
    </g>
   </g>
   <g id="text_2">
    <!-- Fünf Tische mit je vier -->
    <g style="fill: #2d2924" transform="translate(47.293724 40.826425) scale(0.088 -0.088)">
     <defs>
      <path id="FiraSans-Regular-62" d="M 640 0 
L 1248 0 
L 1248 1939 
L 2688 1939 
L 2688 2419 
L 1248 2419 
L 1248 3923 
L 2912 3923 
L 2982 4410 
L 640 4410 
L 640 0 
z
" transform="scale(0.015625)"/>
      <path id="FiraSans-Regular-2b7" d="M 1152 4915 
C 941 4915 781 4755 781 4550 
C 781 4346 941 4186 1152 4186 
C 1357 4186 1517 4346 1517 4550 
C 1517 4755 1357 4915 1152 4915 
z
M 2490 4915 
C 2285 4915 2125 4755 2125 4550 
C 2125 4346 2285 4186 2490 4186 
C 2701 4186 2861 4346 2861 4550 
C 2861 4755 2701 4915 2490 4915 
z
M 3091 3373 
L 2502 3373 
L 2502 966 
C 2298 627 2022 384 1658 384 
C 1293 384 1139 557 1139 1018 
L 1139 3373 
L 550 3373 
L 550 954 
C 550 294 902 -77 1491 -77 
C 1971 -77 2285 115 2541 525 
L 2586 0 
L 3091 0 
L 3091 3373 
z
" transform="scale(0.015625)"/>
      <path id="FiraSans-Regular-233" d="M 2176 3450 
C 1734 3450 1376 3219 1146 2874 
L 1094 3373 
L 589 3373 
L 589 0 
L 1178 0 
L 1178 2394 
C 1402 2752 1658 2989 2035 2989 
C 2362 2989 2566 2842 2566 2336 
L 2566 0 
L 3155 0 
L 3155 2419 
C 3155 3059 2797 3450 2176 3450 
z
" transform="scale(0.015625)"/>
      <path id="FiraSans-Regular-1d1" d="M 1754 4326 
C 1926 4326 2125 4294 2342 4198 
L 2528 4627 
C 2259 4742 2042 4800 1722 4800 
C 1037 4800 666 4397 666 3834 
L 666 3373 
L 64 3373 
L 64 2918 
L 666 2918 
L 666 0 
L 1254 0 
L 1254 2918 
L 2010 2918 
L 2074 3373 
L 1254 3373 
L 1254 3840 
C 1254 4166 1382 4326 1754 4326 
z
" transform="scale(0.015625)"/>
      <path id="FiraSans-Regular-ff" d="M 3245 4410 
L 96 4410 
L 96 3891 
L 1350 3891 
L 1350 0 
L 1958 0 
L 1958 3891 
L 3181 3891 
L 3245 4410 
z
" transform="scale(0.015625)"/>
      <path id="FiraSans-Regular-28c" d="M 1523 3450 
C 826 3450 307 3059 307 2522 
C 307 2048 595 1734 1325 1542 
C 1978 1370 2144 1242 2144 909 
C 2144 589 1862 397 1421 397 
C 1056 397 742 518 474 723 
L 160 365 
C 454 109 864 -77 1434 -77 
C 2118 -77 2765 243 2765 947 
C 2765 1536 2355 1818 1645 1997 
C 1101 2138 922 2266 922 2541 
C 922 2810 1158 2982 1542 2982 
C 1856 2982 2118 2886 2419 2694 
L 2669 3066 
C 2349 3309 1997 3450 1523 3450 
z
" transform="scale(0.015625)"/>
      <path id="FiraSans-Regular-189" d="M 1837 3450 
C 922 3450 365 2733 365 1658 
C 365 570 928 -77 1837 -77 
C 2227 -77 2566 51 2867 294 
L 2598 678 
C 2342 512 2144 422 1862 422 
C 1331 422 998 787 998 1670 
C 998 2547 1331 2963 1862 2963 
C 2144 2963 2355 2880 2586 2714 
L 2867 3085 
C 2554 3347 2234 3450 1837 3450 
z
" transform="scale(0.015625)"/>
      <path id="FiraSans-Regular-1eb" d="M 2176 3450 
C 1754 3450 1421 3238 1178 2906 
L 1178 4787 
L 589 4723 
L 589 0 
L 1178 0 
L 1178 2400 
C 1402 2752 1664 2989 2029 2989 
C 2349 2989 2566 2842 2566 2336 
L 2566 0 
L 3155 0 
L 3155 2419 
C 3155 3053 2790 3450 2176 3450 
z
" transform="scale(0.015625)"/>
      <path id="FiraSans-Regular-1a8" d="M 3155 1786 
C 3155 2816 2675 3450 1766 3450 
C 896 3450 365 2701 365 1651 
C 365 582 915 -77 1856 -77 
C 2323 -77 2701 83 3034 346 
L 2778 698 
C 2483 493 2234 403 1901 403 
C 1414 403 1050 704 992 1485 
L 3142 1485 
C 3149 1562 3155 1670 3155 1786 
z
M 2573 1920 
L 992 1920 
C 1037 2669 1331 2982 1779 2982 
C 2310 2982 2573 2618 2573 1958 
L 2573 1920 
z
" transform="scale(0.015625)"/>
      <path id="FiraSans-Regular-22d" d="M 3974 3450 
C 3520 3450 3213 3206 2970 2842 
C 2842 3226 2534 3450 2118 3450 
C 1677 3450 1370 3219 1146 2880 
L 1094 3373 
L 589 3373 
L 589 0 
L 1178 0 
L 1178 2394 
C 1402 2752 1606 2989 1971 2989 
C 2227 2989 2445 2842 2445 2336 
L 2445 0 
L 3034 0 
L 3034 2394 
C 3264 2752 3462 2989 3827 2989 
C 4083 2989 4301 2842 4301 2336 
L 4301 0 
L 4890 0 
L 4890 2419 
C 4890 3053 4525 3450 3974 3450 
z
" transform="scale(0.015625)"/>
      <path id="FiraSans-Regular-20d" d="M 890 4992 
C 646 4992 480 4819 480 4589 
C 480 4365 646 4192 890 4192 
C 1139 4192 1306 4365 1306 4589 
C 1306 4819 1139 4992 890 4992 
z
M 1184 3373 
L 595 3373 
L 595 166 
C 595 -557 384 -723 -58 -928 
L 115 -1357 
C 832 -1037 1184 -749 1184 205 
L 1184 3373 
z
" transform="scale(0.015625)"/>
      <path id="FiraSans-Regular-2d9" d="M 3085 3373 
L 2464 3373 
L 1587 525 
L 704 3373 
L 64 3373 
L 1229 0 
L 1939 0 
L 3085 3373 
z
" transform="scale(0.015625)"/>
     </defs>
     <use xlink:href="#FiraSans-Regular-62"/>
     <use xlink:href="#FiraSans-Regular-2b7" transform="translate(45.390625 0)"/>
     <use xlink:href="#FiraSans-Regular-233" transform="translate(102.890625 0)"/>
     <use xlink:href="#FiraSans-Regular-1d1" transform="translate(160.796875 0)"/>
     <use xlink:href="#FiraSans-Regular-925" transform="translate(194.296875 0)"/>
     <use xlink:href="#FiraSans-Regular-ff" transform="translate(220.796875 0)"/>
     <use xlink:href="#FiraSans-Regular-1f6" transform="translate(272.5 0)"/>
     <use xlink:href="#FiraSans-Regular-28c" transform="translate(300.09375 0)"/>
     <use xlink:href="#FiraSans-Regular-189" transform="translate(346.796875 0)"/>
     <use xlink:href="#FiraSans-Regular-1eb" transform="translate(394.59375 0)"/>
     <use xlink:href="#FiraSans-Regular-1a8" transform="translate(452.5 0)"/>
     <use xlink:href="#FiraSans-Regular-925" transform="translate(506.90625 0)"/>
     <use xlink:href="#FiraSans-Regular-22d" transform="translate(533.40625 0)"/>
     <use xlink:href="#FiraSans-Regular-1f6" transform="translate(618.40625 0)"/>
     <use xlink:href="#FiraSans-Regular-29a" transform="translate(646 0)"/>
     <use xlink:href="#FiraSans-Regular-925" transform="translate(682.09375 0)"/>
     <use xlink:href="#FiraSans-Regular-20d" transform="translate(708.59375 0)"/>
     <use xlink:href="#FiraSans-Regular-1a8" transform="translate(736.296875 0)"/>
     <use xlink:href="#FiraSans-Regular-925" transform="translate(790.703125 0)"/>
     <use xlink:href="#FiraSans-Regular-2d9" transform="translate(817.203125 0)"/>
     <use xlink:href="#FiraSans-Regular-1f6" transform="translate(866.40625 0)"/>
     <use xlink:href="#FiraSans-Regular-1a8" transform="translate(894 0)"/>
     <use xlink:href="#FiraSans-Regular-27c" transform="translate(948.40625 0)"/>
    </g>
   </g>
   <g id="text_3">
    <!-- Plätzen, zufällig -->
    <g style="fill: #2d2924" transform="translate(59.621286 53.330297) scale(0.088 -0.088)">
     <defs>
      <path id="FiraSans-Regular-e2" d="M 1798 4410 
L 640 4410 
L 640 0 
L 1248 0 
L 1248 1619 
L 1805 1619 
C 2778 1619 3514 2035 3514 3046 
C 3514 3974 2861 4410 1798 4410 
z
M 1779 2099 
L 1248 2099 
L 1248 3936 
L 1792 3936 
C 2445 3936 2867 3699 2867 3040 
C 2867 2291 2432 2099 1779 2099 
z
" transform="scale(0.015625)"/>
      <path id="FiraSans-Regular-21b" d="M 1254 -77 
C 1427 -77 1594 -32 1722 38 
L 1568 448 
C 1504 422 1434 410 1350 410 
C 1197 410 1139 499 1139 678 
L 1139 4800 
L 550 4730 
L 550 666 
C 550 186 826 -77 1254 -77 
z
" transform="scale(0.015625)"/>
      <path id="FiraSans-Regular-16a" d="M 966 4186 
C 1171 4186 1331 4346 1331 4550 
C 1331 4755 1171 4915 966 4915 
C 755 4915 595 4755 595 4550 
C 595 4346 755 4186 966 4186 
z
M 2304 4186 
C 2515 4186 2675 4346 2675 4550 
C 2675 4755 2515 4915 2304 4915 
C 2099 4915 1939 4755 1939 4550 
C 1939 4346 2099 4186 2304 4186 
z
M 2848 787 
L 2848 2330 
C 2848 3034 2477 3450 1664 3450 
C 1286 3450 915 3373 499 3219 
L 646 2790 
C 992 2906 1306 2970 1555 2970 
C 2022 2970 2259 2790 2259 2304 
L 2259 2054 
L 1741 2054 
C 800 2054 256 1664 256 941 
C 256 339 659 -77 1331 -77 
C 1741 -77 2099 77 2336 429 
C 2438 96 2656 -38 2995 -77 
L 3130 333 
C 2957 397 2848 493 2848 787 
z
M 1466 365 
C 1082 365 883 576 883 973 
C 883 1434 1197 1664 1818 1664 
L 2259 1664 
L 2259 890 
C 2067 538 1811 365 1466 365 
z
" transform="scale(0.015625)"/>
      <path id="FiraSans-Regular-2f2" d="M 2586 3373 
L 307 3373 
L 307 2874 
L 1914 2874 
L 160 442 
L 160 0 
L 2534 0 
L 2605 493 
L 826 493 
L 2586 2925 
L 2586 3373 
z
" transform="scale(0.015625)"/>
      <path id="FiraSans-Regular-8d7" d="M 762 813 
C 512 813 320 614 320 371 
C 320 218 390 83 499 0 
L 243 -1062 
L 666 -1062 
L 1094 -83 
C 1178 102 1210 230 1210 371 
C 1210 614 1018 813 762 813 
z
" transform="scale(0.015625)"/>
      <path id="FiraSans-Regular-2af" d="M 3091 3373 
L 2502 3373 
L 2502 966 
C 2298 627 2022 384 1658 384 
C 1293 384 1139 557 1139 1018 
L 1139 3373 
L 550 3373 
L 550 954 
C 550 294 902 -77 1491 -77 
C 1971 -77 2285 115 2541 525 
L 2586 0 
L 3091 0 
L 3091 3373 
z
" transform="scale(0.015625)"/>
      <path id="FiraSans-Regular-1d6" d="M 3155 3750 
C 2758 3571 2451 3430 1613 3450 
C 870 3450 314 2963 314 2272 
C 314 1837 493 1542 883 1338 
C 640 1178 512 960 512 742 
C 512 403 781 102 1382 102 
L 1914 102 
C 2336 102 2592 -58 2592 -378 
C 2592 -717 2336 -902 1606 -902 
C 864 -902 691 -723 691 -339 
L 160 -339 
C 160 -1024 506 -1363 1606 -1363 
C 2650 -1363 3187 -992 3187 -339 
C 3187 198 2726 595 2035 595 
L 1498 595 
C 1152 595 1056 717 1056 870 
C 1056 992 1126 1114 1222 1184 
C 1363 1139 1498 1120 1651 1120 
C 2458 1120 2938 1600 2938 2266 
C 2938 2656 2739 2938 2342 3117 
C 2726 3117 3046 3130 3328 3219 
L 3155 3750 
z
M 1613 3027 
C 2093 3027 2336 2771 2336 2278 
C 2336 1792 2086 1510 1626 1510 
C 1165 1510 915 1824 915 2272 
C 915 2714 1158 3027 1613 3027 
z
" transform="scale(0.015625)"/>
     </defs>
     <use xlink:href="#FiraSans-Regular-e2"/>
     <use xlink:href="#FiraSans-Regular-21b" transform="translate(57.09375 0)"/>
     <use xlink:href="#FiraSans-Regular-16a" transform="translate(86 0)"/>
     <use xlink:href="#FiraSans-Regular-29a" transform="translate(139.90625 0)"/>
     <use xlink:href="#FiraSans-Regular-2f2" transform="translate(176 0)"/>
     <use xlink:href="#FiraSans-Regular-1a8" transform="translate(218.703125 0)"/>
     <use xlink:href="#FiraSans-Regular-233" transform="translate(273.109375 0)"/>
     <use xlink:href="#FiraSans-Regular-8d7" transform="translate(331.015625 0)"/>
     <use xlink:href="#FiraSans-Regular-925" transform="translate(355.015625 0)"/>
     <use xlink:href="#FiraSans-Regular-2f2" transform="translate(381.515625 0)"/>
     <use xlink:href="#FiraSans-Regular-2af" transform="translate(424.71875 0)"/>
     <use xlink:href="#FiraSans-Regular-1d1" transform="translate(482.21875 0)"/>
     <use xlink:href="#FiraSans-Regular-16a" transform="translate(514.71875 0)"/>
     <use xlink:href="#FiraSans-Regular-21b" transform="translate(568.125 0)"/>
     <use xlink:href="#FiraSans-Regular-21b" transform="translate(597.53125 0)"/>
     <use xlink:href="#FiraSans-Regular-1f6" transform="translate(626.9375 0)"/>
     <use xlink:href="#FiraSans-Regular-1d6" transform="translate(654.53125 0)"/>
    </g>
   </g>
   <g id="text_4">
    <!-- verteilt. «Die ersten -->
    <g style="fill: #2d2924" transform="translate(51.561036 65.834168) scale(0.088 -0.088)">
     <defs>
      <path id="FiraSans-Regular-913" d="M 1472 3424 
L 352 2035 
L 352 1632 
L 1472 250 
L 1824 493 
L 960 1837 
L 1824 3181 
L 1472 3424 
z
M 2976 3424 
L 1856 2035 
L 1856 1632 
L 2976 250 
L 3328 493 
L 2464 1837 
L 3328 3181 
L 2976 3424 
z
" transform="scale(0.015625)"/>
      <path id="FiraSans-Regular-36" d="M 1562 4410 
L 640 4410 
L 640 0 
L 1696 0 
C 2650 0 3770 429 3770 2227 
C 3770 4058 2688 4410 1562 4410 
z
M 1696 3923 
C 2400 3923 3123 3718 3123 2227 
C 3123 774 2432 480 1741 480 
L 1248 480 
L 1248 3923 
L 1696 3923 
z
" transform="scale(0.015625)"/>
     </defs>
     <use xlink:href="#FiraSans-Regular-2d9"/>
     <use xlink:href="#FiraSans-Regular-1a8" transform="translate(48.796875 0)"/>
     <use xlink:href="#FiraSans-Regular-27c" transform="translate(103.203125 0)"/>
     <use xlink:href="#FiraSans-Regular-29a" transform="translate(141.5 0)"/>
     <use xlink:href="#FiraSans-Regular-1a8" transform="translate(176.09375 0)"/>
     <use xlink:href="#FiraSans-Regular-1f6" transform="translate(230.5 0)"/>
     <use xlink:href="#FiraSans-Regular-21b" transform="translate(258.09375 0)"/>
     <use xlink:href="#FiraSans-Regular-29a" transform="translate(287.5 0)"/>
     <use xlink:href="#FiraSans-Regular-8d6" transform="translate(324 0)"/>
     <use xlink:href="#FiraSans-Regular-925" transform="translate(348 0)"/>
     <use xlink:href="#FiraSans-Regular-913" transform="translate(374.5 0)"/>
     <use xlink:href="#FiraSans-Regular-36" transform="translate(432 0)"/>
     <use xlink:href="#FiraSans-Regular-1f6" transform="translate(496.40625 0)"/>
     <use xlink:href="#FiraSans-Regular-1a8" transform="translate(524 0)"/>
     <use xlink:href="#FiraSans-Regular-925" transform="translate(578.40625 0)"/>
     <use xlink:href="#FiraSans-Regular-1a8" transform="translate(604.90625 0)"/>
     <use xlink:href="#FiraSans-Regular-27c" transform="translate(659.3125 0)"/>
     <use xlink:href="#FiraSans-Regular-28c" transform="translate(696.109375 0)"/>
     <use xlink:href="#FiraSans-Regular-29a" transform="translate(742.8125 0)"/>
     <use xlink:href="#FiraSans-Regular-1a8" transform="translate(777.40625 0)"/>
     <use xlink:href="#FiraSans-Regular-233" transform="translate(831.8125 0)"/>
    </g>
   </g>
   <g id="text_5">
    <!-- beiden Gäste sitzen am -->
    <g style="fill: #2d2924" transform="translate(44.578099 78.33804) scale(0.088 -0.088)">
     <defs>
      <path id="FiraSans-Regular-17f" d="M 2131 3450 
C 1722 3450 1408 3264 1178 2950 
L 1178 4800 
L 589 4730 
L 589 0 
L 1107 0 
L 1165 371 
C 1395 90 1690 -77 2061 -77 
C 2880 -77 3386 634 3386 1690 
C 3386 2816 2893 3450 2131 3450 
z
M 1920 390 
C 1619 390 1350 576 1178 845 
L 1178 2458 
C 1350 2726 1594 2982 1965 2982 
C 2438 2982 2752 2650 2752 1690 
C 2752 768 2413 390 1920 390 
z
" transform="scale(0.015625)"/>
      <path id="FiraSans-Regular-195" d="M 2598 4800 
L 2598 3034 
C 2374 3270 2086 3450 1690 3450 
C 864 3450 365 2701 365 1670 
C 365 621 819 -77 1638 -77 
C 2054 -77 2394 128 2611 467 
L 2669 0 
L 3187 0 
L 3187 4730 
L 2598 4800 
z
M 1766 390 
C 1280 390 998 794 998 1683 
C 998 2560 1312 2982 1818 2982 
C 2150 2982 2387 2810 2598 2541 
L 2598 890 
C 2374 576 2144 390 1766 390 
z
" transform="scale(0.015625)"/>
      <path id="FiraSans-Regular-65" d="M 2266 4486 
C 1248 4486 352 3693 352 2208 
C 352 685 1062 -77 2202 -77 
C 2765 -77 3226 77 3642 314 
L 3642 2445 
L 2189 2445 
L 2259 1952 
L 3040 1952 
L 3040 621 
C 2790 480 2496 422 2202 422 
C 1427 422 998 941 998 2208 
C 998 3507 1632 3987 2266 3987 
C 2662 3987 2925 3878 3232 3629 
L 3590 4000 
C 3213 4314 2848 4486 2266 4486 
z
" transform="scale(0.015625)"/>
      <path id="FiraSans-Regular-157" d="M 2848 787 
L 2848 2330 
C 2848 3034 2477 3450 1664 3450 
C 1286 3450 915 3373 499 3219 
L 646 2790 
C 992 2906 1306 2970 1555 2970 
C 2022 2970 2259 2790 2259 2304 
L 2259 2054 
L 1741 2054 
C 800 2054 256 1664 256 941 
C 256 339 659 -77 1331 -77 
C 1741 -77 2099 77 2336 429 
C 2438 96 2656 -38 2995 -77 
L 3130 333 
C 2957 397 2848 493 2848 787 
z
M 1466 365 
C 1082 365 883 576 883 973 
C 883 1434 1197 1664 1818 1664 
L 2259 1664 
L 2259 890 
C 2067 538 1811 365 1466 365 
z
" transform="scale(0.015625)"/>
     </defs>
     <use xlink:href="#FiraSans-Regular-17f"/>
     <use xlink:href="#FiraSans-Regular-1a8" transform="translate(58.59375 0)"/>
     <use xlink:href="#FiraSans-Regular-1f6" transform="translate(113 0)"/>
     <use xlink:href="#FiraSans-Regular-195" transform="translate(140.59375 0)"/>
     <use xlink:href="#FiraSans-Regular-1a8" transform="translate(199.59375 0)"/>
     <use xlink:href="#FiraSans-Regular-233" transform="translate(254 0)"/>
     <use xlink:href="#FiraSans-Regular-925" transform="translate(311.90625 0)"/>
     <use xlink:href="#FiraSans-Regular-65" transform="translate(338.40625 0)"/>
     <use xlink:href="#FiraSans-Regular-16a" transform="translate(401.5 0)"/>
     <use xlink:href="#FiraSans-Regular-28c" transform="translate(455.40625 0)"/>
     <use xlink:href="#FiraSans-Regular-29a" transform="translate(502.109375 0)"/>
     <use xlink:href="#FiraSans-Regular-1a8" transform="translate(536.703125 0)"/>
     <use xlink:href="#FiraSans-Regular-925" transform="translate(591.109375 0)"/>
     <use xlink:href="#FiraSans-Regular-28c" transform="translate(617.609375 0)"/>
     <use xlink:href="#FiraSans-Regular-1f6" transform="translate(664.3125 0)"/>
     <use xlink:href="#FiraSans-Regular-29a" transform="translate(691.90625 0)"/>
     <use xlink:href="#FiraSans-Regular-2f2" transform="translate(728 0)"/>
     <use xlink:href="#FiraSans-Regular-1a8" transform="translate(770.703125 0)"/>
     <use xlink:href="#FiraSans-Regular-233" transform="translate(825.109375 0)"/>
     <use xlink:href="#FiraSans-Regular-925" transform="translate(883.015625 0)"/>
     <use xlink:href="#FiraSans-Regular-157" transform="translate(909.515625 0)"/>
     <use xlink:href="#FiraSans-Regular-22d" transform="translate(963.421875 0)"/>
    </g>
   </g>
   <g id="text_6">
    <!-- gleichen Tisch.» -->
    <g style="fill: #2d2924" transform="translate(59.041036 90.841911) scale(0.088 -0.088)">
     <defs>
      <path id="FiraSans-Regular-915" d="M 704 3424 
L 352 3181 
L 1216 1837 
L 352 493 
L 704 250 
L 1824 1632 
L 1824 2035 
L 704 3424 
z
M 2150 3424 
L 1798 3181 
L 2662 1837 
L 1798 493 
L 2150 250 
L 3270 1632 
L 3270 2035 
L 2150 3424 
z
" transform="scale(0.015625)"/>
     </defs>
     <use xlink:href="#FiraSans-Regular-1d6"/>
     <use xlink:href="#FiraSans-Regular-21b" transform="translate(52 0)"/>
     <use xlink:href="#FiraSans-Regular-1a8" transform="translate(80.90625 0)"/>
     <use xlink:href="#FiraSans-Regular-1f6" transform="translate(135.3125 0)"/>
     <use xlink:href="#FiraSans-Regular-189" transform="translate(162.90625 0)"/>
     <use xlink:href="#FiraSans-Regular-1eb" transform="translate(210.703125 0)"/>
     <use xlink:href="#FiraSans-Regular-1a8" transform="translate(268.609375 0)"/>
     <use xlink:href="#FiraSans-Regular-233" transform="translate(323.015625 0)"/>
     <use xlink:href="#FiraSans-Regular-925" transform="translate(380.921875 0)"/>
     <use xlink:href="#FiraSans-Regular-ff" transform="translate(407.421875 0)"/>
     <use xlink:href="#FiraSans-Regular-1f6" transform="translate(459.125 0)"/>
     <use xlink:href="#FiraSans-Regular-28c" transform="translate(486.71875 0)"/>
     <use xlink:href="#FiraSans-Regular-189" transform="translate(533.421875 0)"/>
     <use xlink:href="#FiraSans-Regular-1eb" transform="translate(581.21875 0)"/>
     <use xlink:href="#FiraSans-Regular-8d6" transform="translate(639.125 0)"/>
     <use xlink:href="#FiraSans-Regular-915" transform="translate(663.125 0)"/>
    </g>
   </g>
  </g>
 </g>
 <defs>
  <clipPath id="p677f99e3bf">
   <rect x="0" y="0" width="181.417323" height="153.070866"/>
  </clipPath>
 </defs>
</svg>
