<?xml version="1.0" encoding="utf-8" standalone="no"?>
<!DOCTYPE svg PUBLIC "-//W3C//DTD SVG 1.1//EN"
  "http://www.w3.org/Graphics/SVG/1.1/DTD/svg11.dtd">
<svg xmlns:xlink="http://www.w3.org/1999/xlink" width="181.417323pt" height="153.070866pt" viewBox="0 0 181.417323 153.070866" xmlns="http://www.w3.org/2000/svg" version="1.1">
 <metadata>
  <rdf:RDF xmlns:dc="http://purl.org/dc/elements/1.1/" xmlns:cc="http://creativecommons.org/ns#" xmlns:rdf="http://www.w3.org/1999/02/22-rdf-syntax-ns#">
   <cc:Work>
    <dc:type rdf:resource="http://purl.org/dc/dcmitype/StillImage"/>
    <dc:date>2026-08-22T05:23:59.111351</dc:date>
    <dc:format>image/svg+xml</dc:format>
    <dc:creator>
     <cc:Agent>
      <dc:title>Matplotlib v3.11.1, https://matplotlib.org/</dc:title>
     </cc:Agent>
    </dc:creator>
   </cc:Work>
  </rdf:RDF>
 </metadata>
 <defs>
  <style type="text/css">*{stroke-linejoin: round; stroke-linecap: butt}</style>
 </defs>
 <g id="figure_1">
  <g id="patch_1">
   <path d="M 0 153.070866 
L 181.417323 153.070866 
L 181.417323 0 
L 0 0 
L 0 153.070866 
z
" style="fill: none"/>
  </g>
  <g id="axes_1">
   <g id="patch_2">
    <path d="M 9.354331 152.787402 
L 172.062992 152.787402 
Q 178.299213 152.787402 178.299213 146.551181 
L 178.299213 10.488189 
Q 178.299213 4.251969 172.062992 4.251969 
L 9.354331 4.251969 
Q 3.11811 4.251969 3.11811 10.488189 
L 3.11811 146.551181 
Q 3.11811 152.787402 9.354331 152.787402 
z
" clip-path="url(#p677f99e3bf)" style="fill: #e8ddcb"/>
   </g>
   <g id="patch_3">
    <path d="M 8.787402 151.086614 
L 171.496063 151.086614 
Q 177.732283 151.086614 177.732283 144.850394 
L 177.732283 8.787402 
Q 177.732283 2.551181 171.496063 2.551181 
L 8.787402 2.551181 
Q 2.551181 2.551181 2.551181 8.787402 
L 2.551181 144.850394 
Q 2.551181 151.086614 8.787402 151.086614 
z
" clip-path="url(#p677f99e3bf)" style="fill: #fffefb; stroke: #e4d9c7; stroke-linejoin: miter"/>
   </g>
   <g id="patch_4">
    <path d="M 54.141732 71.648504 
C 53.580472 77.34274 43.154646 80.189858 41.385827 88.161789 
C 41.385827 95.564296 49.787717 100.119685 63.496063 100.119685 
C 77.204409 100.119685 85.606299 95.564296 85.606299 88.161789 
C 83.83748 80.189858 73.411654 77.34274 72.850394 71.648504 
" clip-path="url(#p677f99e3bf)" style="fill: none; stroke: #333333; stroke-width: 1.15; stroke-linecap: round"/>
   </g>
   <g id="patch_5">
    <path d="M 63.496063 73.499131 
C 65.97686 73.499131 68.356385 73.304137 70.110574 72.957095 
C 71.864762 72.610052 72.850394 72.139296 72.850394 71.648504 
C 72.850394 71.157712 71.864762 70.686956 70.110574 70.339913 
C 68.356385 69.992871 65.97686 69.797877 63.496063 69.797877 
C 61.015265 69.797877 58.635741 69.992871 56.881552 70.339913 
C 55.127364 70.686956 54.141732 71.157712 54.141732 71.648504 
C 54.141732 72.139296 55.127364 72.610052 56.881552 72.957095 
C 58.635741 73.304137 61.015265 73.499131 63.496063 73.499131 
L 63.496063 73.499131 
z
" clip-path="url(#p677f99e3bf)" style="fill: none; stroke: #333333; stroke-linejoin: miter"/>
   </g>
   <g id="patch_6">
    <path d="M 52.767827 98.597949 
C 53.574965 98.597949 54.349154 98.27727 54.919886 97.706537 
C 55.490619 97.135805 55.811299 96.361616 55.811299 95.554478 
C 55.811299 94.74734 55.490619 93.973152 54.919886 93.402419 
C 54.349154 92.831687 53.574965 92.511007 52.767827 92.511007 
C 51.960689 92.511007 51.186501 92.831687 50.615768 93.402419 
C 50.045036 93.973152 49.724356 94.74734 49.724356 95.554478 
C 49.724356 96.361616 50.045036 97.135805 50.615768 97.706537 
C 51.186501 98.27727 51.960689 98.597949 52.767827 98.597949 
z
" clip-path="url(#p677f99e3bf)" style="fill: #007d57"/>
   </g>
   <g id="patch_7">
    <path d="M 59.919984 98.597949 
C 60.727122 98.597949 61.501311 98.27727 62.072044 97.706537 
C 62.642776 97.135805 62.963456 96.361616 62.963456 95.554478 
C 62.963456 94.74734 62.642776 93.973152 62.072044 93.402419 
C 61.501311 92.831687 60.727122 92.511007 59.919984 92.511007 
C 59.112847 92.511007 58.338658 92.831687 57.767925 93.402419 
C 57.197193 93.973152 56.876513 94.74734 56.876513 95.554478 
C 56.876513 96.361616 57.197193 97.135805 57.767925 97.706537 
C 58.338658 98.27727 59.112847 98.597949 59.919984 98.597949 
z
" clip-path="url(#p677f99e3bf)" style="fill: #007d57"/>
   </g>
   <g id="patch_8">
    <path d="M 67.072142 98.597949 
C 67.879279 98.597949 68.653468 98.27727 69.224201 97.706537 
C 69.794933 97.135805 70.115613 96.361616 70.115613 95.554478 
C 70.115613 94.74734 69.794933 93.973152 69.224201 93.402419 
C 68.653468 92.831687 67.879279 92.511007 67.072142 92.511007 
C 66.265004 92.511007 65.490815 92.831687 64.920082 93.402419 
C 64.34935 93.973152 64.02867 94.74734 64.02867 95.554478 
C 64.02867 96.361616 64.34935 97.135805 64.920082 97.706537 
C 65.490815 98.27727 66.265004 98.597949 67.072142 98.597949 
z
" clip-path="url(#p677f99e3bf)" style="fill: #007d57"/>
   </g>
   <g id="patch_9">
    <path d="M 74.224299 98.597949 
C 75.031437 98.597949 75.805625 98.27727 76.376358 97.706537 
C 76.94709 97.135805 77.26777 96.361616 77.26777 95.554478 
C 77.26777 94.74734 76.94709 93.973152 76.376358 93.402419 
C 75.805625 92.831687 75.031437 92.511007 74.224299 92.511007 
C 73.417161 92.511007 72.642972 92.831687 72.07224 93.402419 
C 71.501507 93.973152 71.180827 94.74734 71.180827 95.554478 
C 71.180827 96.361616 71.501507 97.135805 72.07224 97.706537 
C 72.642972 98.27727 73.417161 98.597949 74.224299 98.597949 
z
" clip-path="url(#p677f99e3bf)" style="fill: #007d57"/>
   </g>
   <g id="patch_10">
    <path d="M 52.767827 91.445792 
C 53.574965 91.445792 54.349154 91.125113 54.919886 90.55438 
C 55.490619 89.983648 55.811299 89.209459 55.811299 88.402321 
C 55.811299 87.595183 55.490619 86.820995 54.919886 86.250262 
C 54.349154 85.67953 53.574965 85.35885 52.767827 85.35885 
C 51.960689 85.35885 51.186501 85.67953 50.615768 86.250262 
C 50.045036 86.820995 49.724356 87.595183 49.724356 88.402321 
C 49.724356 89.209459 50.045036 89.983648 50.615768 90.55438 
C 51.186501 91.125113 51.960689 91.445792 52.767827 91.445792 
z
" clip-path="url(#p677f99e3bf)" style="fill: #007d57"/>
   </g>
   <g id="patch_11">
    <path d="M 59.919984 91.445792 
C 60.727122 91.445792 61.501311 91.125113 62.072044 90.55438 
C 62.642776 89.983648 62.963456 89.209459 62.963456 88.402321 
C 62.963456 87.595183 62.642776 86.820995 62.072044 86.250262 
C 61.501311 85.67953 60.727122 85.35885 59.919984 85.35885 
C 59.112847 85.35885 58.338658 85.67953 57.767925 86.250262 
C 57.197193 86.820995 56.876513 87.595183 56.876513 88.402321 
C 56.876513 89.209459 57.197193 89.983648 57.767925 90.55438 
C 58.338658 91.125113 59.112847 91.445792 59.919984 91.445792 
z
" clip-path="url(#p677f99e3bf)" style="fill: #007d57"/>
   </g>
   <g id="patch_12">
    <path d="M 67.072142 91.445792 
C 67.879279 91.445792 68.653468 91.125113 69.224201 90.55438 
C 69.794933 89.983648 70.115613 89.209459 70.115613 88.402321 
C 70.115613 87.595183 69.794933 86.820995 69.224201 86.250262 
C 68.653468 85.67953 67.879279 85.35885 67.072142 85.35885 
C 66.265004 85.35885 65.490815 85.67953 64.920082 86.250262 
C 64.34935 86.820995 64.02867 87.595183 64.02867 88.402321 
C 64.02867 89.209459 64.34935 89.983648 64.920082 90.55438 
C 65.490815 91.125113 66.265004 91.445792 67.072142 91.445792 
z
" clip-path="url(#p677f99e3bf)" style="fill: #007d57"/>
   </g>
   <g id="patch_13">
    <path d="M 74.224299 91.445792 
C 75.031437 91.445792 75.805625 91.125113 76.376358 90.55438 
C 76.94709 89.983648 77.26777 89.209459 77.26777 88.402321 
C 77.26777 87.595183 76.94709 86.820995 76.376358 86.250262 
C 75.805625 85.67953 75.031437 85.35885 74.224299 85.35885 
C 73.417161 85.35885 72.642972 85.67953 72.07224 86.250262 
C 71.501507 86.820995 71.180827 87.595183 71.180827 88.402321 
C 71.180827 89.209459 71.501507 89.983648 72.07224 90.55438 
C 72.642972 91.125113 73.417161 91.445792 74.224299 91.445792 
z
" clip-path="url(#p677f99e3bf)" style="fill: #007d57"/>
   </g>
   <g id="patch_14">
    <path d="M 108.566929 71.648504 
C 108.005669 77.34274 97.579843 80.189858 95.811024 88.161789 
C 95.811024 95.564296 104.212913 100.119685 117.92126 100.119685 
C 131.629606 100.119685 140.031496 95.564296 140.031496 88.161789 
C 138.262677 80.189858 127.83685 77.34274 127.275591 71.648504 
" clip-path="url(#p677f99e3bf)" style="fill: none; stroke: #333333; stroke-width: 1.15; stroke-linecap: round"/>
   </g>
   <g id="patch_15">
    <path d="M 117.92126 73.499131 
C 120.402057 73.499131 122.781582 73.304137 124.535771 72.957095 
C 126.289959 72.610052 127.275591 72.139296 127.275591 71.648504 
C 127.275591 71.157712 126.289959 70.686956 124.535771 70.339913 
C 122.781582 69.992871 120.402057 69.797877 117.92126 69.797877 
C 115.440462 69.797877 113.060938 69.992871 111.306749 70.339913 
C 109.55256 70.686956 108.566929 71.157712 108.566929 71.648504 
C 108.566929 72.139296 109.55256 72.610052 111.306749 72.957095 
C 113.060938 73.304137 115.440462 73.499131 117.92126 73.499131 
L 117.92126 73.499131 
z
" clip-path="url(#p677f99e3bf)" style="fill: none; stroke: #333333; stroke-linejoin: miter"/>
   </g>
   <g id="patch_16">
    <path d="M 107.193024 98.597949 
C 108.000162 98.597949 108.774351 98.27727 109.345083 97.706537 
C 109.915816 97.135805 110.236495 96.361616 110.236495 95.554478 
C 110.236495 94.74734 109.915816 93.973152 109.345083 93.402419 
C 108.774351 92.831687 108.000162 92.511007 107.193024 92.511007 
C 106.385886 92.511007 105.611698 92.831687 105.040965 93.402419 
C 104.470233 93.973152 104.149553 94.74734 104.149553 95.554478 
C 104.149553 96.361616 104.470233 97.135805 105.040965 97.706537 
C 105.611698 98.27727 106.385886 98.597949 107.193024 98.597949 
z
" clip-path="url(#p677f99e3bf)" style="fill: #007d57"/>
   </g>
   <g id="patch_17">
    <path d="M 114.345181 98.597949 
C 115.152319 98.597949 115.926508 98.27727 116.49724 97.706537 
C 117.067973 97.135805 117.388652 96.361616 117.388652 95.554478 
C 117.388652 94.74734 117.067973 93.973152 116.49724 93.402419 
C 115.926508 92.831687 115.152319 92.511007 114.345181 92.511007 
C 113.538043 92.511007 112.763855 92.831687 112.193122 93.402419 
C 111.62239 93.973152 111.30171 94.74734 111.30171 95.554478 
C 111.30171 96.361616 111.62239 97.135805 112.193122 97.706537 
C 112.763855 98.27727 113.538043 98.597949 114.345181 98.597949 
z
" clip-path="url(#p677f99e3bf)" style="fill: #007d57"/>
   </g>
   <g id="patch_18">
    <path d="M 121.497338 98.597949 
C 122.304476 98.597949 123.078665 98.27727 123.649397 97.706537 
C 124.22013 97.135805 124.540809 96.361616 124.540809 95.554478 
C 124.540809 94.74734 124.22013 93.973152 123.649397 93.402419 
C 123.078665 92.831687 122.304476 92.511007 121.497338 92.511007 
C 120.6902 92.511007 119.916012 92.831687 119.345279 93.402419 
C 118.774547 93.973152 118.453867 94.74734 118.453867 95.554478 
C 118.453867 96.361616 118.774547 97.135805 119.345279 97.706537 
C 119.916012 98.27727 120.6902 98.597949 121.497338 98.597949 
z
" clip-path="url(#p677f99e3bf)" style="fill: #007d57"/>
   </g>
   <g id="patch_19">
    <path d="M 128.649495 98.597949 
C 129.456633 98.597949 130.230822 98.27727 130.801554 97.706537 
C 131.372287 97.135805 131.692966 96.361616 131.692966 95.554478 
C 131.692966 94.74734 131.372287 93.973152 130.801554 93.402419 
C 130.230822 92.831687 129.456633 92.511007 128.649495 92.511007 
C 127.842357 92.511007 127.068169 92.831687 126.497436 93.402419 
C 125.926704 93.973152 125.606024 94.74734 125.606024 95.554478 
C 125.606024 96.361616 125.926704 97.135805 126.497436 97.706537 
C 127.068169 98.27727 127.842357 98.597949 128.649495 98.597949 
z
" clip-path="url(#p677f99e3bf)" style="fill: #007d57"/>
   </g>
   <g id="patch_20">
    <path d="M 107.193024 91.445792 
C 108.000162 91.445792 108.774351 91.125113 109.345083 90.55438 
C 109.915816 89.983648 110.236495 89.209459 110.236495 88.402321 
C 110.236495 87.595183 109.915816 86.820995 109.345083 86.250262 
C 108.774351 85.67953 108.000162 85.35885 107.193024 85.35885 
C 106.385886 85.35885 105.611698 85.67953 105.040965 86.250262 
C 104.470233 86.820995 104.149553 87.595183 104.149553 88.402321 
C 104.149553 89.209459 104.470233 89.983648 105.040965 90.55438 
C 105.611698 91.125113 106.385886 91.445792 107.193024 91.445792 
z
" clip-path="url(#p677f99e3bf)" style="fill: #007d57"/>
   </g>
   <g id="patch_21">
    <path d="M 114.345181 91.445792 
C 115.152319 91.445792 115.926508 91.125113 116.49724 90.55438 
C 117.067973 89.983648 117.388652 89.209459 117.388652 88.402321 
C 117.388652 87.595183 117.067973 86.820995 116.49724 86.250262 
C 115.926508 85.67953 115.152319 85.35885 114.345181 85.35885 
C 113.538043 85.35885 112.763855 85.67953 112.193122 86.250262 
C 111.62239 86.820995 111.30171 87.595183 111.30171 88.402321 
C 111.30171 89.209459 111.62239 89.983648 112.193122 90.55438 
C 112.763855 91.125113 113.538043 91.445792 114.345181 91.445792 
z
" clip-path="url(#p677f99e3bf)" style="fill: #007d57"/>
   </g>
   <g id="patch_22">
    <path d="M 121.497338 91.445792 
C 122.304476 91.445792 123.078665 91.125113 123.649397 90.55438 
C 124.22013 89.983648 124.540809 89.209459 124.540809 88.402321 
C 124.540809 87.595183 124.22013 86.820995 123.649397 86.250262 
C 123.078665 85.67953 122.304476 85.35885 121.497338 85.35885 
C 120.6902 85.35885 119.916012 85.67953 119.345279 86.250262 
C 118.774547 86.820995 118.453867 87.595183 118.453867 88.402321 
C 118.453867 89.209459 118.774547 89.983648 119.345279 90.55438 
C 119.916012 91.125113 120.6902 91.445792 121.497338 91.445792 
z
" clip-path="url(#p677f99e3bf)" style="fill: #007d57"/>
   </g>
   <g id="patch_23">
    <path d="M 128.649495 91.445792 
C 129.456633 91.445792 130.230822 91.125113 130.801554 90.55438 
C 131.372287 89.983648 131.692966 89.209459 131.692966 88.402321 
C 131.692966 87.595183 131.372287 86.820995 130.801554 86.250262 
C 130.230822 85.67953 129.456633 85.35885 128.649495 85.35885 
C 127.842357 85.35885 127.068169 85.67953 126.497436 86.250262 
C 125.926704 86.820995 125.606024 87.595183 125.606024 88.402321 
C 125.606024 89.209459 125.926704 89.983648 126.497436 90.55438 
C 127.068169 91.125113 127.842357 91.445792 128.649495 91.445792 
z
" clip-path="url(#p677f99e3bf)" style="fill: #007d57"/>
   </g>
   <g id="text_1">
    <!-- 8 Sorten -->
    <g style="fill: #1a1a1a" transform="translate(51.345563 63.149354) scale(0.064 -0.064)">
     <defs>
      <path id="FiraSans-Regular-895" d="M 2336 2298 
C 2822 2541 3066 2829 3066 3264 
C 3066 3994 2406 4346 1766 4346 
C 1114 4346 467 3968 467 3245 
C 467 2803 672 2477 1133 2246 
C 608 2016 288 1683 288 1133 
C 288 429 870 -77 1754 -77 
C 2624 -77 3238 429 3238 1146 
C 3238 1683 2925 2061 2336 2298 
z
M 1766 3904 
C 2234 3904 2490 3642 2490 3245 
C 2490 2880 2330 2656 1946 2438 
L 1837 2477 
C 1344 2637 1043 2797 1043 3238 
C 1043 3667 1325 3904 1766 3904 
z
M 1760 390 
C 1229 390 902 666 902 1133 
C 902 1600 1107 1894 1530 2099 
L 1690 2042 
C 2381 1805 2624 1600 2624 1139 
C 2624 691 2298 390 1760 390 
z
" transform="scale(0.015625)"/>
      <path id="FiraSans-Regular-925" transform="scale(0.015625)"/>
      <path id="FiraSans-Regular-f3" d="M 1728 4486 
C 915 4486 339 4013 339 3334 
C 339 2650 787 2323 1645 2061 
C 2394 1830 2598 1638 2598 1210 
C 2598 678 2170 422 1651 422 
C 1171 422 826 595 493 864 
L 160 493 
C 525 134 1024 -77 1658 -77 
C 2650 -77 3232 461 3232 1229 
C 3232 2074 2630 2349 1926 2566 
C 1133 2810 960 2989 960 3360 
C 960 3782 1312 3987 1754 3987 
C 2118 3987 2426 3872 2758 3603 
L 3091 3974 
C 2720 4307 2336 4486 1728 4486 
z
" transform="scale(0.015625)"/>
      <path id="FiraSans-Regular-244" d="M 1875 3450 
C 915 3450 365 2726 365 1683 
C 365 614 909 -77 1869 -77 
C 2822 -77 3373 646 3373 1690 
C 3373 2758 2835 3450 1875 3450 
z
M 1875 2976 
C 2432 2976 2739 2566 2739 1690 
C 2739 806 2432 397 1869 397 
C 1306 397 998 806 998 1683 
C 998 2566 1312 2976 1875 2976 
z
" transform="scale(0.015625)"/>
      <path id="FiraSans-Regular-27c" d="M 2054 3450 
C 1645 3450 1331 3194 1152 2688 
L 1094 3373 
L 589 3373 
L 589 0 
L 1178 0 
L 1178 1926 
C 1318 2573 1562 2874 1984 2874 
C 2106 2874 2176 2861 2278 2835 
L 2387 3411 
C 2285 3437 2163 3450 2054 3450 
z
" transform="scale(0.015625)"/>
      <path id="FiraSans-Regular-29a" d="M 2086 544 
C 1920 454 1786 410 1638 410 
C 1344 410 1235 570 1235 909 
L 1235 2918 
L 1971 2918 
L 2035 3373 
L 1235 3373 
L 1235 4205 
L 646 4134 
L 646 3373 
L 58 3373 
L 58 2918 
L 646 2918 
L 646 883 
C 646 256 986 -77 1555 -77 
C 1843 -77 2086 0 2310 154 
L 2086 544 
z
" transform="scale(0.015625)"/>
      <path id="FiraSans-Regular-1a8" d="M 3155 1786 
C 3155 2816 2675 3450 1766 3450 
C 896 3450 365 2701 365 1651 
C 365 582 915 -77 1856 -77 
C 2323 -77 2701 83 3034 346 
L 2778 698 
C 2483 493 2234 403 1901 403 
C 1414 403 1050 704 992 1485 
L 3142 1485 
C 3149 1562 3155 1670 3155 1786 
z
M 2573 1920 
L 992 1920 
C 1037 2669 1331 2982 1779 2982 
C 2310 2982 2573 2618 2573 1958 
L 2573 1920 
z
" transform="scale(0.015625)"/>
      <path id="FiraSans-Regular-233" d="M 2176 3450 
C 1734 3450 1376 3219 1146 2874 
L 1094 3373 
L 589 3373 
L 589 0 
L 1178 0 
L 1178 2394 
C 1402 2752 1658 2989 2035 2989 
C 2362 2989 2566 2842 2566 2336 
L 2566 0 
L 3155 0 
L 3155 2419 
C 3155 3059 2797 3450 2176 3450 
z
" transform="scale(0.015625)"/>
     </defs>
     <use xlink:href="#FiraSans-Regular-895"/>
     <use xlink:href="#FiraSans-Regular-925" transform="translate(55.09375 0)"/>
     <use xlink:href="#FiraSans-Regular-f3" transform="translate(81.59375 0)"/>
     <use xlink:href="#FiraSans-Regular-244" transform="translate(136.09375 0)"/>
     <use xlink:href="#FiraSans-Regular-27c" transform="translate(194.5 0)"/>
     <use xlink:href="#FiraSans-Regular-29a" transform="translate(232.796875 0)"/>
     <use xlink:href="#FiraSans-Regular-1a8" transform="translate(267.390625 0)"/>
     <use xlink:href="#FiraSans-Regular-233" transform="translate(321.796875 0)"/>
    </g>
   </g>
   <g id="text_2">
    <!-- 2× -->
    <g style="fill: #1a1a1a" transform="translate(60.909063 109.753751) scale(0.052 -0.052)">
     <defs>
      <path id="FiraSans-Regular-87d" d="M 1459 4346 
C 922 4346 506 4128 160 3699 
L 544 3392 
C 832 3718 1069 3859 1427 3859 
C 1843 3859 2131 3597 2131 3149 
C 2131 2451 1760 2042 250 467 
L 250 0 
L 2778 0 
L 2848 493 
L 922 493 
C 2234 1805 2746 2374 2746 3174 
C 2746 3840 2246 4346 1459 4346 
z
" transform="scale(0.015625)"/>
      <path id="FiraSans-Regular-983" d="M 2381 3110 
L 1587 2310 
L 819 3110 
L 461 2746 
L 1229 1952 
L 461 1184 
L 819 826 
L 1613 1619 
L 2381 826 
L 2739 1184 
L 1971 1978 
L 2739 2746 
L 2381 3110 
z
" transform="scale(0.015625)"/>
     </defs>
     <use xlink:href="#FiraSans-Regular-87d"/>
     <use xlink:href="#FiraSans-Regular-983" transform="translate(49.5 0)"/>
    </g>
    <!-- mit Zurücklegen -->
    <g style="fill: #1a1a1a" transform="translate(44.645657 117.26247) scale(0.052 -0.052)">
     <defs>
      <path id="FiraSans-Regular-22d" d="M 3974 3450 
C 3520 3450 3213 3206 2970 2842 
C 2842 3226 2534 3450 2118 3450 
C 1677 3450 1370 3219 1146 2880 
L 1094 3373 
L 589 3373 
L 589 0 
L 1178 0 
L 1178 2394 
C 1402 2752 1606 2989 1971 2989 
C 2227 2989 2445 2842 2445 2336 
L 2445 0 
L 3034 0 
L 3034 2394 
C 3264 2752 3462 2989 3827 2989 
C 4083 2989 4301 2842 4301 2336 
L 4301 0 
L 4890 0 
L 4890 2419 
C 4890 3053 4525 3450 3974 3450 
z
" transform="scale(0.015625)"/>
      <path id="FiraSans-Regular-1f6" d="M 877 4992 
C 634 4992 467 4819 467 4589 
C 467 4365 634 4192 877 4192 
C 1126 4192 1293 4365 1293 4589 
C 1293 4819 1126 4992 877 4992 
z
M 1178 3373 
L 589 3373 
L 589 0 
L 1178 0 
L 1178 3373 
z
" transform="scale(0.015625)"/>
      <path id="FiraSans-Regular-144" d="M 3053 4410 
L 422 4410 
L 422 3898 
L 2394 3898 
L 192 486 
L 192 0 
L 2982 0 
L 3053 518 
L 870 518 
L 3053 3917 
L 3053 4410 
z
" transform="scale(0.015625)"/>
      <path id="FiraSans-Regular-2af" d="M 3091 3373 
L 2502 3373 
L 2502 966 
C 2298 627 2022 384 1658 384 
C 1293 384 1139 557 1139 1018 
L 1139 3373 
L 550 3373 
L 550 954 
C 550 294 902 -77 1491 -77 
C 1971 -77 2285 115 2541 525 
L 2586 0 
L 3091 0 
L 3091 3373 
z
" transform="scale(0.015625)"/>
      <path id="FiraSans-Regular-2b7" d="M 1152 4915 
C 941 4915 781 4755 781 4550 
C 781 4346 941 4186 1152 4186 
C 1357 4186 1517 4346 1517 4550 
C 1517 4755 1357 4915 1152 4915 
z
M 2490 4915 
C 2285 4915 2125 4755 2125 4550 
C 2125 4346 2285 4186 2490 4186 
C 2701 4186 2861 4346 2861 4550 
C 2861 4755 2701 4915 2490 4915 
z
M 3091 3373 
L 2502 3373 
L 2502 966 
C 2298 627 2022 384 1658 384 
C 1293 384 1139 557 1139 1018 
L 1139 3373 
L 550 3373 
L 550 954 
C 550 294 902 -77 1491 -77 
C 1971 -77 2285 115 2541 525 
L 2586 0 
L 3091 0 
L 3091 3373 
z
" transform="scale(0.015625)"/>
      <path id="FiraSans-Regular-189" d="M 1837 3450 
C 922 3450 365 2733 365 1658 
C 365 570 928 -77 1837 -77 
C 2227 -77 2566 51 2867 294 
L 2598 678 
C 2342 512 2144 422 1862 422 
C 1331 422 998 787 998 1670 
C 998 2547 1331 2963 1862 2963 
C 2144 2963 2355 2880 2586 2714 
L 2867 3085 
C 2554 3347 2234 3450 1837 3450 
z
" transform="scale(0.015625)"/>
      <path id="FiraSans-Regular-215" d="M 1178 4800 
L 589 4730 
L 589 0 
L 1178 0 
L 1178 4800 
z
M 3117 3373 
L 2458 3373 
L 1216 1843 
L 2554 0 
L 3258 0 
L 1875 1882 
L 3117 3373 
z
" transform="scale(0.015625)"/>
      <path id="FiraSans-Regular-21b" d="M 1254 -77 
C 1427 -77 1594 -32 1722 38 
L 1568 448 
C 1504 422 1434 410 1350 410 
C 1197 410 1139 499 1139 678 
L 1139 4800 
L 550 4730 
L 550 666 
C 550 186 826 -77 1254 -77 
z
" transform="scale(0.015625)"/>
      <path id="FiraSans-Regular-1d6" d="M 3155 3750 
C 2758 3571 2451 3430 1613 3450 
C 870 3450 314 2963 314 2272 
C 314 1837 493 1542 883 1338 
C 640 1178 512 960 512 742 
C 512 403 781 102 1382 102 
L 1914 102 
C 2336 102 2592 -58 2592 -378 
C 2592 -717 2336 -902 1606 -902 
C 864 -902 691 -723 691 -339 
L 160 -339 
C 160 -1024 506 -1363 1606 -1363 
C 2650 -1363 3187 -992 3187 -339 
C 3187 198 2726 595 2035 595 
L 1498 595 
C 1152 595 1056 717 1056 870 
C 1056 992 1126 1114 1222 1184 
C 1363 1139 1498 1120 1651 1120 
C 2458 1120 2938 1600 2938 2266 
C 2938 2656 2739 2938 2342 3117 
C 2726 3117 3046 3130 3328 3219 
L 3155 3750 
z
M 1613 3027 
C 2093 3027 2336 2771 2336 2278 
C 2336 1792 2086 1510 1626 1510 
C 1165 1510 915 1824 915 2272 
C 915 2714 1158 3027 1613 3027 
z
" transform="scale(0.015625)"/>
     </defs>
     <use xlink:href="#FiraSans-Regular-22d"/>
     <use xlink:href="#FiraSans-Regular-1f6" transform="translate(85 0)"/>
     <use xlink:href="#FiraSans-Regular-29a" transform="translate(112.59375 0)"/>
     <use xlink:href="#FiraSans-Regular-925" transform="translate(148.6875 0)"/>
     <use xlink:href="#FiraSans-Regular-144" transform="translate(175.1875 0)"/>
     <use xlink:href="#FiraSans-Regular-2af" transform="translate(225.390625 0)"/>
     <use xlink:href="#FiraSans-Regular-27c" transform="translate(282.890625 0)"/>
     <use xlink:href="#FiraSans-Regular-2b7" transform="translate(321.1875 0)"/>
     <use xlink:href="#FiraSans-Regular-189" transform="translate(378.6875 0)"/>
     <use xlink:href="#FiraSans-Regular-215" transform="translate(426.484375 0)"/>
     <use xlink:href="#FiraSans-Regular-21b" transform="translate(477.390625 0)"/>
     <use xlink:href="#FiraSans-Regular-1a8" transform="translate(506.296875 0)"/>
     <use xlink:href="#FiraSans-Regular-1d6" transform="translate(560.703125 0)"/>
     <use xlink:href="#FiraSans-Regular-1a8" transform="translate(612.703125 0)"/>
     <use xlink:href="#FiraSans-Regular-233" transform="translate(667.109375 0)"/>
    </g>
    <!-- mit Rhf -->
    <g style="fill: #1a1a1a" transform="translate(54.991625 125.584908) scale(0.052 -0.052)">
     <defs>
      <path id="FiraSans-Regular-e9" d="M 2989 0 
L 3712 0 
L 2522 1978 
C 3155 2170 3475 2541 3475 3162 
C 3475 3987 2899 4410 1798 4410 
L 640 4410 
L 640 0 
L 1248 0 
L 1248 1869 
L 1933 1869 
L 2989 0 
z
M 1248 2336 
L 1248 3936 
L 1792 3936 
C 2515 3936 2829 3712 2829 3162 
C 2829 2566 2477 2336 1862 2336 
L 1248 2336 
z
" transform="scale(0.015625)"/>
      <path id="FiraSans-Regular-1eb" d="M 2176 3450 
C 1754 3450 1421 3238 1178 2906 
L 1178 4787 
L 589 4723 
L 589 0 
L 1178 0 
L 1178 2400 
C 1402 2752 1664 2989 2029 2989 
C 2349 2989 2566 2842 2566 2336 
L 2566 0 
L 3155 0 
L 3155 2419 
C 3155 3053 2790 3450 2176 3450 
z
" transform="scale(0.015625)"/>
      <path id="FiraSans-Regular-1d1" d="M 1754 4326 
C 1926 4326 2125 4294 2342 4198 
L 2528 4627 
C 2259 4742 2042 4800 1722 4800 
C 1037 4800 666 4397 666 3834 
L 666 3373 
L 64 3373 
L 64 2918 
L 666 2918 
L 666 0 
L 1254 0 
L 1254 2918 
L 2010 2918 
L 2074 3373 
L 1254 3373 
L 1254 3840 
C 1254 4166 1382 4326 1754 4326 
z
" transform="scale(0.015625)"/>
     </defs>
     <use xlink:href="#FiraSans-Regular-22d"/>
     <use xlink:href="#FiraSans-Regular-1f6" transform="translate(85 0)"/>
     <use xlink:href="#FiraSans-Regular-29a" transform="translate(112.59375 0)"/>
     <use xlink:href="#FiraSans-Regular-925" transform="translate(148.6875 0)"/>
     <use xlink:href="#FiraSans-Regular-e9" transform="translate(175.1875 0)"/>
     <use xlink:href="#FiraSans-Regular-1eb" transform="translate(235.6875 0)"/>
     <use xlink:href="#FiraSans-Regular-1d1" transform="translate(293.59375 0)"/>
    </g>
   </g>
   <g id="text_3">
    <!-- · -->
    <g style="fill: #1a1a1a" transform="translate(89.388661 89.569094) scale(0.11 -0.11)">
     <defs>
      <path id="FiraSans-Regular-8e1" d="M 762 2432 
C 512 2432 320 2234 320 1990 
C 320 1741 512 1542 762 1542 
C 1018 1542 1210 1741 1210 1990 
C 1210 2234 1018 2432 762 2432 
z
" transform="scale(0.015625)"/>
     </defs>
     <use xlink:href="#FiraSans-Regular-8e1"/>
    </g>
   </g>
   <g id="text_4">
    <!-- 8 Sorten -->
    <g style="fill: #1a1a1a" transform="translate(105.77076 63.149354) scale(0.064 -0.064)">
     <use xlink:href="#FiraSans-Regular-895"/>
     <use xlink:href="#FiraSans-Regular-925" transform="translate(55.09375 0)"/>
     <use xlink:href="#FiraSans-Regular-f3" transform="translate(81.59375 0)"/>
     <use xlink:href="#FiraSans-Regular-244" transform="translate(136.09375 0)"/>
     <use xlink:href="#FiraSans-Regular-27c" transform="translate(194.5 0)"/>
     <use xlink:href="#FiraSans-Regular-29a" transform="translate(232.796875 0)"/>
     <use xlink:href="#FiraSans-Regular-1a8" transform="translate(267.390625 0)"/>
     <use xlink:href="#FiraSans-Regular-233" transform="translate(321.796875 0)"/>
    </g>
   </g>
   <g id="text_5">
    <!-- 3× -->
    <g style="fill: #1a1a1a" transform="translate(115.323697 109.72247) scale(0.052 -0.052)">
     <defs>
      <path id="FiraSans-Regular-881" d="M 1440 4346 
C 979 4346 582 4179 218 3840 
L 525 3488 
C 813 3757 1069 3872 1408 3872 
C 1837 3872 2118 3622 2118 3219 
C 2118 2720 1766 2464 1344 2464 
L 1126 2464 
L 1056 2010 
L 1376 2010 
C 1894 2010 2227 1830 2227 1242 
C 2227 736 1901 403 1363 403 
C 1018 403 730 531 448 826 
L 96 499 
C 422 109 870 -77 1382 -77 
C 2272 -77 2842 486 2842 1235 
C 2842 1882 2413 2221 1875 2272 
C 2355 2387 2707 2714 2707 3258 
C 2707 3834 2259 4346 1440 4346 
z
" transform="scale(0.015625)"/>
     </defs>
     <use xlink:href="#FiraSans-Regular-881"/>
     <use xlink:href="#FiraSans-Regular-983" transform="translate(49.90625 0)"/>
    </g>
    <!-- mit Zurücklegen -->
    <g style="fill: #1a1a1a" transform="translate(99.070854 117.26247) scale(0.052 -0.052)">
     <use xlink:href="#FiraSans-Regular-22d"/>
     <use xlink:href="#FiraSans-Regular-1f6" transform="translate(85 0)"/>
     <use xlink:href="#FiraSans-Regular-29a" transform="translate(112.59375 0)"/>
     <use xlink:href="#FiraSans-Regular-925" transform="translate(148.6875 0)"/>
     <use xlink:href="#FiraSans-Regular-144" transform="translate(175.1875 0)"/>
     <use xlink:href="#FiraSans-Regular-2af" transform="translate(225.390625 0)"/>
     <use xlink:href="#FiraSans-Regular-27c" transform="translate(282.890625 0)"/>
     <use xlink:href="#FiraSans-Regular-2b7" transform="translate(321.1875 0)"/>
     <use xlink:href="#FiraSans-Regular-189" transform="translate(378.6875 0)"/>
     <use xlink:href="#FiraSans-Regular-215" transform="translate(426.484375 0)"/>
     <use xlink:href="#FiraSans-Regular-21b" transform="translate(477.390625 0)"/>
     <use xlink:href="#FiraSans-Regular-1a8" transform="translate(506.296875 0)"/>
     <use xlink:href="#FiraSans-Regular-1d6" transform="translate(560.703125 0)"/>
     <use xlink:href="#FiraSans-Regular-1a8" transform="translate(612.703125 0)"/>
     <use xlink:href="#FiraSans-Regular-233" transform="translate(667.109375 0)"/>
    </g>
    <!-- mit Rhf -->
    <g style="fill: #1a1a1a" transform="translate(109.416822 125.584908) scale(0.052 -0.052)">
     <use xlink:href="#FiraSans-Regular-22d"/>
     <use xlink:href="#FiraSans-Regular-1f6" transform="translate(85 0)"/>
     <use xlink:href="#FiraSans-Regular-29a" transform="translate(112.59375 0)"/>
     <use xlink:href="#FiraSans-Regular-925" transform="translate(148.6875 0)"/>
     <use xlink:href="#FiraSans-Regular-e9" transform="translate(175.1875 0)"/>
     <use xlink:href="#FiraSans-Regular-1eb" transform="translate(235.6875 0)"/>
     <use xlink:href="#FiraSans-Regular-1d1" transform="translate(293.59375 0)"/>
    </g>
   </g>
  </g>
 </g>
 <defs>
  <clipPath id="p677f99e3bf">
   <rect x="0" y="0" width="181.417323" height="153.070866"/>
  </clipPath>
 </defs>
</svg>
