<?xml version="1.0" encoding="utf-8" standalone="no"?>
<!DOCTYPE svg PUBLIC "-//W3C//DTD SVG 1.1//EN"
  "http://www.w3.org/Graphics/SVG/1.1/DTD/svg11.dtd">
<svg xmlns:xlink="http://www.w3.org/1999/xlink" width="181.417323pt" height="153.070866pt" viewBox="0 0 181.417323 153.070866" xmlns="http://www.w3.org/2000/svg" version="1.1">
 <metadata>
  <rdf:RDF xmlns:dc="http://purl.org/dc/elements/1.1/" xmlns:cc="http://creativecommons.org/ns#" xmlns:rdf="http://www.w3.org/1999/02/22-rdf-syntax-ns#">
   <cc:Work>
    <dc:type rdf:resource="http://purl.org/dc/dcmitype/StillImage"/>
    <dc:date>2026-09-08T13:20:13.014373</dc:date>
    <dc:format>image/svg+xml</dc:format>
    <dc:creator>
     <cc:Agent>
      <dc:title>Matplotlib v3.11.1, https://matplotlib.org/</dc:title>
     </cc:Agent>
    </dc:creator>
   </cc:Work>
  </rdf:RDF>
 </metadata>
 <defs>
  <style type="text/css">*{stroke-linejoin: round; stroke-linecap: butt}</style>
 </defs>
 <g id="figure_1">
  <g id="patch_1">
   <path d="M 0 153.070866 
L 181.417323 153.070866 
L 181.417323 0 
L 0 0 
L 0 153.070866 
z
" style="fill: none"/>
  </g>
  <g id="axes_1">
   <g id="patch_2">
    <path d="M 9.354331 152.787402 
L 172.062992 152.787402 
Q 178.299213 152.787402 178.299213 146.551181 
L 178.299213 10.488189 
Q 178.299213 4.251969 172.062992 4.251969 
L 9.354331 4.251969 
Q 3.11811 4.251969 3.11811 10.488189 
L 3.11811 146.551181 
Q 3.11811 152.787402 9.354331 152.787402 
z
" clip-path="url(#p677f99e3bf)" style="fill: #e8ddcb"/>
   </g>
   <g id="patch_3">
    <path d="M 8.787402 151.086614 
L 171.496063 151.086614 
Q 177.732283 151.086614 177.732283 144.850394 
L 177.732283 8.787402 
Q 177.732283 2.551181 171.496063 2.551181 
L 8.787402 2.551181 
Q 2.551181 2.551181 2.551181 8.787402 
L 2.551181 144.850394 
Q 2.551181 151.086614 8.787402 151.086614 
z
" clip-path="url(#p677f99e3bf)" style="fill: #fffefb; stroke: #e4d9c7; stroke-linejoin: miter"/>
   </g>
   <g id="line2d_1">
    <path d="M 39.685039 35.716535 
L 141.732283 35.716535 
" clip-path="url(#p677f99e3bf)" style="fill: none; stroke: #e4d9c7; stroke-width: 0.9; stroke-linecap: square"/>
   </g>
   <g id="text_1">
    <!-- Folgerung -->
    <g style="fill: #6c6357" transform="translate(76.006646 24.888165) scale(0.066 -0.066)">
     <defs>
      <path id="FiraSans-Regular-62" d="M 640 0 
L 1248 0 
L 1248 1939 
L 2688 1939 
L 2688 2419 
L 1248 2419 
L 1248 3923 
L 2912 3923 
L 2982 4410 
L 640 4410 
L 640 0 
z
" transform="scale(0.015625)"/>
      <path id="FiraSans-Regular-244" d="M 1875 3450 
C 915 3450 365 2726 365 1683 
C 365 614 909 -77 1869 -77 
C 2822 -77 3373 646 3373 1690 
C 3373 2758 2835 3450 1875 3450 
z
M 1875 2976 
C 2432 2976 2739 2566 2739 1690 
C 2739 806 2432 397 1869 397 
C 1306 397 998 806 998 1683 
C 998 2566 1312 2976 1875 2976 
z
" transform="scale(0.015625)"/>
      <path id="FiraSans-Regular-21b" d="M 1254 -77 
C 1427 -77 1594 -32 1722 38 
L 1568 448 
C 1504 422 1434 410 1350 410 
C 1197 410 1139 499 1139 678 
L 1139 4800 
L 550 4730 
L 550 666 
C 550 186 826 -77 1254 -77 
z
" transform="scale(0.015625)"/>
      <path id="FiraSans-Regular-1d6" d="M 3155 3750 
C 2758 3571 2451 3430 1613 3450 
C 870 3450 314 2963 314 2272 
C 314 1837 493 1542 883 1338 
C 640 1178 512 960 512 742 
C 512 403 781 102 1382 102 
L 1914 102 
C 2336 102 2592 -58 2592 -378 
C 2592 -717 2336 -902 1606 -902 
C 864 -902 691 -723 691 -339 
L 160 -339 
C 160 -1024 506 -1363 1606 -1363 
C 2650 -1363 3187 -992 3187 -339 
C 3187 198 2726 595 2035 595 
L 1498 595 
C 1152 595 1056 717 1056 870 
C 1056 992 1126 1114 1222 1184 
C 1363 1139 1498 1120 1651 1120 
C 2458 1120 2938 1600 2938 2266 
C 2938 2656 2739 2938 2342 3117 
C 2726 3117 3046 3130 3328 3219 
L 3155 3750 
z
M 1613 3027 
C 2093 3027 2336 2771 2336 2278 
C 2336 1792 2086 1510 1626 1510 
C 1165 1510 915 1824 915 2272 
C 915 2714 1158 3027 1613 3027 
z
" transform="scale(0.015625)"/>
      <path id="FiraSans-Regular-1a8" d="M 3155 1786 
C 3155 2816 2675 3450 1766 3450 
C 896 3450 365 2701 365 1651 
C 365 582 915 -77 1856 -77 
C 2323 -77 2701 83 3034 346 
L 2778 698 
C 2483 493 2234 403 1901 403 
C 1414 403 1050 704 992 1485 
L 3142 1485 
C 3149 1562 3155 1670 3155 1786 
z
M 2573 1920 
L 992 1920 
C 1037 2669 1331 2982 1779 2982 
C 2310 2982 2573 2618 2573 1958 
L 2573 1920 
z
" transform="scale(0.015625)"/>
      <path id="FiraSans-Regular-27c" d="M 2054 3450 
C 1645 3450 1331 3194 1152 2688 
L 1094 3373 
L 589 3373 
L 589 0 
L 1178 0 
L 1178 1926 
C 1318 2573 1562 2874 1984 2874 
C 2106 2874 2176 2861 2278 2835 
L 2387 3411 
C 2285 3437 2163 3450 2054 3450 
z
" transform="scale(0.015625)"/>
      <path id="FiraSans-Regular-2af" d="M 3091 3373 
L 2502 3373 
L 2502 966 
C 2298 627 2022 384 1658 384 
C 1293 384 1139 557 1139 1018 
L 1139 3373 
L 550 3373 
L 550 954 
C 550 294 902 -77 1491 -77 
C 1971 -77 2285 115 2541 525 
L 2586 0 
L 3091 0 
L 3091 3373 
z
" transform="scale(0.015625)"/>
      <path id="FiraSans-Regular-233" d="M 2176 3450 
C 1734 3450 1376 3219 1146 2874 
L 1094 3373 
L 589 3373 
L 589 0 
L 1178 0 
L 1178 2394 
C 1402 2752 1658 2989 2035 2989 
C 2362 2989 2566 2842 2566 2336 
L 2566 0 
L 3155 0 
L 3155 2419 
C 3155 3059 2797 3450 2176 3450 
z
" transform="scale(0.015625)"/>
     </defs>
     <use xlink:href="#FiraSans-Regular-62"/>
     <use xlink:href="#FiraSans-Regular-244" transform="translate(45.59375 0)"/>
     <use xlink:href="#FiraSans-Regular-21b" transform="translate(104 0)"/>
     <use xlink:href="#FiraSans-Regular-1d6" transform="translate(133.40625 0)"/>
     <use xlink:href="#FiraSans-Regular-1a8" transform="translate(185.40625 0)"/>
     <use xlink:href="#FiraSans-Regular-27c" transform="translate(239.8125 0)"/>
     <use xlink:href="#FiraSans-Regular-2af" transform="translate(278.109375 0)"/>
     <use xlink:href="#FiraSans-Regular-233" transform="translate(335.609375 0)"/>
     <use xlink:href="#FiraSans-Regular-1d6" transform="translate(393.515625 0)"/>
    </g>
   </g>
   <g id="text_2">
    <!-- $P(\emptyset)=0$ -->
    <g style="fill: #2d2924" transform="translate(71.331161 83.636357) scale(0.115 -0.115)">
     <defs>
      <path id="PennstanderMath-ExtraLight-7eb" d="M 464 -74 
C 557 -80 765 -83 874 -83 
C 874 816 909 1792 922 2067 
C 1117 2042 1331 2029 1517 2029 
C 2387 2029 2893 2342 2893 3165 
C 2893 3821 2442 4112 1674 4112 
C 1206 4112 874 4054 595 3997 
C 544 3027 464 1018 464 -74 
z
M 931 2416 
L 966 3741 
C 1274 3782 1514 3802 1709 3802 
C 2208 3802 2544 3635 2544 3133 
C 2544 2518 2042 2365 1549 2365 
C 1325 2365 1101 2390 931 2416 
z
" transform="scale(0.015625)"/>
      <path id="PennstanderMath-ExtraLight-48a" d="M 2013 -960 
C 1923 -886 1834 -790 1757 -691 
C 1654 -563 1562 -413 1482 -253 
C 1146 403 992 1293 992 1971 
C 992 2800 1165 3539 1530 4189 
C 1606 4330 1696 4474 1789 4605 
C 1856 4704 1923 4803 1997 4896 
C 1936 4934 1808 4970 1648 5021 
C 1584 4950 1520 4867 1462 4781 
C 1357 4640 1261 4490 1178 4326 
C 822 3648 634 2778 634 2000 
C 634 1226 768 278 1155 -438 
C 1245 -611 1354 -768 1472 -906 
C 1549 -1005 1635 -1101 1725 -1181 
C 1782 -1152 1978 -992 2013 -960 
z
" transform="scale(0.015625)"/>
      <path id="PennstanderMath-ExtraLight-148" d="M 1942 -186 
C 2803 -186 3603 694 3603 1997 
C 3603 2992 3306 3718 2739 4051 
L 2896 4678 
C 2822 4714 2669 4746 2547 4755 
C 2512 4573 2470 4381 2426 4186 
C 2275 4230 2118 4253 1942 4253 
C 1107 4253 355 3379 355 2029 
C 355 1187 650 461 1149 83 
C 1062 -138 976 -342 896 -528 
C 963 -563 1120 -598 1216 -608 
C 1286 -451 1357 -278 1434 -83 
C 1590 -150 1760 -186 1942 -186 
z
M 1920 173 
C 1795 173 1674 202 1565 253 
C 1910 1174 2304 2406 2650 3706 
C 3043 3411 3226 2813 3229 1962 
C 3229 928 2624 173 1920 173 
z
M 755 1997 
C 752 3123 1277 3910 1971 3910 
C 2109 3910 2234 3891 2349 3856 
C 2067 2701 1674 1472 1290 451 
C 963 774 755 1350 755 1997 
z
" transform="scale(0.015625)"/>
      <path id="PennstanderMath-ExtraLight-49b" d="M 739 -960 
C 774 -992 970 -1152 1027 -1181 
C 1117 -1101 1203 -1005 1280 -906 
C 1398 -768 1507 -611 1597 -438 
C 1984 278 2118 1226 2118 2000 
C 2118 2778 1930 3648 1574 4326 
C 1491 4490 1395 4640 1290 4781 
C 1232 4867 1168 4950 1104 5021 
C 944 4970 816 4934 755 4896 
C 829 4803 896 4704 963 4605 
C 1056 4474 1146 4330 1222 4189 
C 1587 3539 1760 2800 1760 1971 
C 1760 1293 1606 403 1270 -253 
C 1190 -413 1098 -563 995 -691 
C 918 -790 829 -886 739 -960 
z
" transform="scale(0.015625)"/>
      <path id="PennstanderMath-ExtraLight-29f" d="M 403 2723 
C 384 2650 371 2502 371 2416 
C 893 2474 2877 2573 3456 2573 
C 3459 2650 3443 2806 3430 2880 
C 2678 2880 861 2816 403 2723 
z
M 378 1280 
C 368 1197 362 1046 368 976 
C 746 998 1354 1011 1949 1018 
C 2560 1024 3162 1027 3478 1027 
C 3478 1104 3459 1270 3443 1347 
C 2698 1392 1235 1386 378 1280 
z
" transform="scale(0.015625)"/>
      <path id="PennstanderMath-ExtraLight-793" d="M 1501 -102 
C 2410 -102 2669 883 2669 2013 
C 2669 3254 2410 4282 1501 4282 
C 595 4282 278 3302 278 2035 
C 278 979 611 -102 1501 -102 
z
M 1494 256 
C 899 256 656 1030 656 2160 
C 656 2925 893 3939 1485 3939 
C 2080 3939 2310 3050 2310 2154 
C 2310 1283 2230 256 1494 256 
z
" transform="scale(0.015625)"/>
     </defs>
     <use xlink:href="#PennstanderMath-ExtraLight-7eb" transform="translate(0 0.546875)"/>
     <use xlink:href="#PennstanderMath-ExtraLight-48a" transform="translate(48.84996 0.546875)"/>
     <use xlink:href="#PennstanderMath-ExtraLight-148" transform="translate(91.849915 0.546875)"/>
     <use xlink:href="#PennstanderMath-ExtraLight-49b" transform="translate(153.649857 0.546875)"/>
     <use xlink:href="#PennstanderMath-ExtraLight-29f" transform="translate(213.759793 0.546875)"/>
     <use xlink:href="#PennstanderMath-ExtraLight-793" transform="translate(290.71972 0.546875)"/>
    </g>
   </g>
  </g>
 </g>
 <defs>
  <clipPath id="p677f99e3bf">
   <rect x="0" y="0" width="181.417323" height="153.070866"/>
  </clipPath>
 </defs>
</svg>
